# Blender v2.92.0 OBJ File: ''
# www.blender.org
mtllib Ottaedro.mtl
o Cube
v 0.000000 1.569977 0.000000
v 0.000000 -1.527880 0.000000
v 1.000000 0.000000 -1.000000
v -1.000000 0.000000 1.000000
v 1.000000 0.000000 1.000000
v -1.000000 0.000000 -1.000000
vt 0.939321 0.001790
vt 0.001012 0.497037
vt 0.945224 1.000000
vt 0.939319 0.001790
vt 0.945224 1.000000
vt 0.943788 0.999235
vt -0.000292 0.497575
vt 0.941332 -0.000219
vt 0.940188 -0.000162
vt 0.000829 0.496989
vt 0.944932 1.003068
vt -0.001114 0.496429
vt 0.941813 -0.000162
vt 0.000810 0.496996
vt 0.940020 -0.000163
vt 0.003193 0.495309
vt 0.940251 0.001206
vt 0.000855 0.496908
vt 0.940847 0.001791
vn 0.0000 0.5372 0.8434
vn -0.8434 0.5372 0.0000
vn 0.8434 0.5372 0.0000
vn 0.0000 0.5372 -0.8434
vn 0.0000 -0.5476 -0.8367
vn 0.8367 -0.5476 0.0000
vn -0.8367 -0.5476 0.0000
vn 0.0000 -0.5476 0.8367
usemtl Material
s off
f 5/1/1 1/2/1 4/3/1
f 4/4/2 1/2/2 6/5/2
f 3/6/3 1/7/3 5/8/3
f 6/9/4 1/10/4 3/11/4
f 2/12/5 6/13/5 3/6/5
f 2/14/6 3/11/6 5/15/6
f 2/16/7 4/17/7 6/5/7
f 2/18/8 5/19/8 4/3/8
